# xmcd CD database file
#
# Track frame offsets:
#	150
#	8663
#	25444
#	43011
#	59646
#	74979
#	87158
#	98536
#	116871
#	134054
#	144902
#	158770
#	178473
#	197584
#	212010
#	228250
#	245616
#	260979
#	277194
#	289888
#	308451
#
# Disc length: 4256 seconds
#
# Revision: 0
# Processed by: cddbd v1.5.1PL2 Copyright (c) Steve Scherf et al.
# Submitted via: CDex 1.51
#
DISCID=49109e15
DTITLE=Various Artist - CATCH ALL YOUR STUFF!!
DYEAR=2005
DGENRE=Punk Rock
TTITLE0=TOO CLOSE TO SEE - NOT CHANGE FOREVER
TTITLE1=for better, for worse - BLUESTAR
TTITLE2=CAR(CHASE - I STOP THE FOLLOW YOU
TTITLE3=THE COWS JACK SON - THE FORTH OF AUGUST
TTITLE4=URCHIN FARM  - PRAYER
TTITLE5=SHENKY GUNS - SMILING TO MYSELF
TTITLE6=POSTMASTER - TWO HUNDRED THIRTEEN
TTITLE7=at Anytime - IN THE RAIN
TTITLE8=UNDER LIFE - UST LIKE THE SHINING MOON
TTITLE9=MILK ROBBER - SHORT STORY
TTITLE10=JACKED UP - WILL
TTITLE11=RIDDLE - CLOSE MY EYES
TTITLE12=MIMITTO - LINE
TTITLE13=concentrate  - DREAMIN' BOY
TTITLE14=SCREAM - NINE TIMES OUT OF TEN
TTITLE15=SHOVE-IT - SO PLEASE UNDERSTAND ME
TTITLE16=FULL COUNTER - SHINE
TTITLE17=Parking Out - 僕
TTITLE18=FLASH BACK - LOST WINGS
TTITLE19=TOTALFAT - I'll MAKE YOUR HEART SCRAP
TTITLE20=69BUG - GOOD NEWS
EXTD=YEAR: 2005
EXTT0=
EXTT1=
EXTT2=
EXTT3=
EXTT4=
EXTT5=
EXTT6=
EXTT7=
EXTT8=
EXTT9=
EXTT10=
EXTT11=
EXTT12=
EXTT13=
EXTT14=
EXTT15=
EXTT16=
EXTT17=
EXTT18=
EXTT19=
EXTT20=
PLAYORDER=
